solid dummy_13_eklemli_aksiyon_figuru
  facet normal 0.0 0.0 1.0
    outer loop
      vertex 0.0 0.0 10.0
      vertex 45.0 0.0 10.0
      vertex 45.0 45.0 10.0
    endloop
  endfacet
  facet normal 0.0 0.0 1.0
    outer loop
      vertex 0.0 0.0 10.0
      vertex 45.0 45.0 10.0
      vertex 0.0 45.0 10.0
    endloop
  endfacet
  facet normal 0.0 0.0 -1.0
    outer loop
      vertex 0.0 0.0 0.0
      vertex 45.0 45.0 0.0
      vertex 45.0 0.0 0.0
    endloop
  endfacet
  facet normal 0.0 0.0 -1.0
    outer loop
      vertex 0.0 0.0 0.0
      vertex 0.0 45.0 0.0
      vertex 45.0 45.0 0.0
    endloop
  endfacet
endsolid dummy_13_eklemli_aksiyon_figuru
