solid masa_alti_ciftli_kulaklik_gamepad_askisi
  facet normal 0.0 0.0 1.0
    outer loop
      vertex 0.0 0.0 10.0
      vertex 45.0 0.0 10.0
      vertex 45.0 45.0 10.0
    endloop
  endfacet
  facet normal 0.0 0.0 1.0
    outer loop
      vertex 0.0 0.0 10.0
      vertex 45.0 45.0 10.0
      vertex 0.0 45.0 10.0
    endloop
  endfacet
  facet normal 0.0 0.0 -1.0
    outer loop
      vertex 0.0 0.0 0.0
      vertex 45.0 45.0 0.0
      vertex 45.0 0.0 0.0
    endloop
  endfacet
  facet normal 0.0 0.0 -1.0
    outer loop
      vertex 0.0 0.0 0.0
      vertex 0.0 45.0 0.0
      vertex 45.0 45.0 0.0
    endloop
  endfacet
endsolid masa_alti_ciftli_kulaklik_gamepad_askisi
